0
SECTION
2
HEADER
9
$INSUNITS
70
4
9
$ACADVER
1
AC1014
9
$HANDSEED
5
FFFF
0
ENDSEC
0
SECTION
2
TABLES
0
TABLE
2
VPORT
5
8
100
AcDbSymbolTable
0
ENDTAB
0
TABLE
2
LTYPE
5
5
100
AcDbSymbolTable
0
LTYPE
5
14
100
AcDbSymbolTableRecord
100
AcDbLinetypeTableRecord
2
BYBLOCK
70
0
0
LTYPE
5
15
100
AcDbSymbolTableRecord
100
AcDbLinetypeTableRecord
2
BYLAYER
70
0
0
ENDTAB
0
TABLE
2
LAYER
5
2
100
AcDbSymbolTable
70
2
0
LAYER
5
50
100
AcDbSymbolTableRecord
100
AcDbLayerTableRecord
2
0
70
0
6
CONTINUOUS
0
ENDTAB
0
TABLE
2
STYLE
5
3
100
AcDbSymbolTable
70
1
0
STYLE
5
11
100
AcDbSymbolTableRecord
100
AcDbTextStyleTableRecord
2
STANDARD
70
0
0
ENDTAB
0
TABLE
2
VIEW
5
6
100
AcDbSymbolTable
70
0
0
ENDTAB
0
TABLE
2
UCS
5
7
100
AcDbSymbolTable
70
0
0
ENDTAB
0
TABLE
2
APPID
5
9
100
AcDbSymbolTable
70
2
0
APPID
5
12
100
AcDbSymbolTableRecord
100
AcDbRegAppTableRecord
2
ACAD
70
0
0
ENDTAB
0
TABLE
2
DIMSTYLE
5
A
100
AcDbSymbolTable
70
1
0
ENDTAB
0
TABLE
2
BLOCK_RECORD
5
1
100
AcDbSymbolTable
70
1
0
BLOCK_RECORD
5
1F
100
AcDbSymbolTableRecord
100
AcDbBlockTableRecord
2
*MODEL_SPACE
0
BLOCK_RECORD
5
1B
100
AcDbSymbolTableRecord
100
AcDbBlockTableRecord
2
*PAPER_SPACE
0
ENDTAB
0
ENDSEC
0
SECTION
2
BLOCKS
0
BLOCK
5
20
100
AcDbEntity
100
AcDbBlockBegin
2
*MODEL_SPACE
0
ENDBLK
5
21
100
AcDbEntity
100
AcDbBlockEnd
0
BLOCK
5
1C
100
AcDbEntity
100
AcDbBlockBegin
2
*PAPER_SPACE
0
ENDBLK
5
1D
100
AcDbEntity
100
AcDbBlockEnd
0
ENDSEC
0
SECTION
2
ENTITIES
0
CIRCLE
5
100
100
AcDbEntity
8
0
100
AcDbCircle
10
-61.849100000000313
20
81.340878183498774
30
0
40
2.2499999999999964
210
0
220
-0
230
1
0
LWPOLYLINE
5
101
100
AcDbEntity
8
0
100
AcDbPolyline
90
4
70
1
43
0.0
10
-13.740235131517773
20
89.695759055117975
42
-0.36721497078883636
10
-14.257964868483089
20
89.695759055117975
42
0.89086466281855081
10
-14.257964868483093
20
85.225640944881761
42
-0.36721497078883997
10
-13.740235131517768
20
85.225640944881761
42
0.89086466281854726
0
CIRCLE
5
102
100
AcDbEntity
8
0
100
AcDbCircle
10
-7.5000000000003508
20
65.999999999999929
30
0
40
1.45
210
0
220
0
230
1
0
CIRCLE
5
103
100
AcDbEntity
8
0
100
AcDbCircle
10
-82.500000000000355
20
96.999999999999858
30
0
40
1.45
210
0
220
0
230
1
0
CIRCLE
5
104
100
AcDbEntity
8
0
100
AcDbCircle
10
-82.49948000000029
20
65.999299999999835
30
0
40
1.45
210
0
220
0
230
1
0
CIRCLE
5
105
100
AcDbEntity
8
0
100
AcDbCircle
10
-7.5000000000004654
20
97.000000000000014
30
0
40
1.45
210
0
220
0
230
1
0
LWPOLYLINE
5
106
100
AcDbEntity
8
0
100
AcDbPolyline
90
36
70
1
43
0.0
10
-88.392650000000316
20
31.5
42
-0.41421356237308721
10
-88.892650000000316
20
31
10
-90.499999999999986
20
31.000000000000007
42
-0.41421356237308721
10
-91
20
31.5
10
-91.000000000000014
20
47.053999999999895
42
-0.41421356237308982
10
-90.5
20
47.553999999999881
10
-85.449747468304423
20
47.553999999999796
42
-0.66817863791927479
10
-84.389087296524451
20
44.993339828220265
10
-84.414212197350494
20
44.968214927394293
42
1.0000004825079072
10
-81.585786437994514
20
42.139786437257683
10
-81.560660171778139
20
42.164912703474059
42
0.66817863791928278
10
-85.449747468304352
20
51.553999999999874
10
-90.499999999999986
20
51.55399999999986
42
-0.41421356237307422
10
-91
20
52.053999999999867
10
-90.999999999999972
20
100.49999999999999
42
-0.41421356237307422
10
-90.499999999999972
20
101
10
0.49999999999999817
20
101
42
-0.41421356237310536
10
0.99999999999999645
20
100.49999999999997
10
1.0000000000000029
20
51.77131319019081
42
-0.19553215554042377
10
0.8581246789952246
20
51.422390972075405
10
-4.6921050661774091
20
51.438295103441654
42
0.6681786379192618
10
-8.608080627362531
20
42.06039045122936
10
-8.5830264630860942
20
42.035192289384483
42
1.0000004825654274
10
-5.7465075137323396
20
44.855504373171186
10
-5.7715603165357372
20
44.880701165719579
42
-0.66817863791924392
10
-4.7035669816669596
20
47.438311525413738
10
0.84666276350548964
20
47.422407394047482
42
-0.20393430581788696
10
0.99999999999999645
20
47.062095128923559
10
1.0000000000000084
20
31.500000000000004
42
-0.41421356237309681
10
0.49999999999999822
20
30.999999999999996
10
-1.2977500000003062
20
30.999999999999996
42
-0.41421356237309426
10
-1.7977500000003068
20
31.5
10
-1.7977500000003044
20
34.054000000000009
42
0.41421356237309404
10
-2.2977500000003026
20
34.554000000000016
10
-87.892650000000287
20
34.553999999999888
42
0.41421356237310542
10
-88.392650000000316
20
34.053999999999888
0
ENDSEC
0
SECTION
2
OBJECTS
0
DICTIONARY
5
C
100
AcDbDictionary
3
ACAD_GROUP
350
D
3
ACAD_MLINESTYLE
350
17
0
DICTIONARY
5
D
100
AcDbDictionary
0
DICTIONARY
5
1A
330
C
100
AcDbDictionary
0
DICTIONARY
5
17
100
AcDbDictionary
0
ENDSEC
0
EOF
