0
SECTION
2
HEADER
9
$INSUNITS
70
4
9
$ACADVER
1
AC1014
9
$HANDSEED
5
FFFF
0
ENDSEC
0
SECTION
2
TABLES
0
TABLE
2
VPORT
5
8
100
AcDbSymbolTable
0
ENDTAB
0
TABLE
2
LTYPE
5
5
100
AcDbSymbolTable
0
LTYPE
5
14
100
AcDbSymbolTableRecord
100
AcDbLinetypeTableRecord
2
BYBLOCK
70
0
0
LTYPE
5
15
100
AcDbSymbolTableRecord
100
AcDbLinetypeTableRecord
2
BYLAYER
70
0
0
ENDTAB
0
TABLE
2
LAYER
5
2
100
AcDbSymbolTable
70
2
0
LAYER
5
50
100
AcDbSymbolTableRecord
100
AcDbLayerTableRecord
2
0
70
0
6
CONTINUOUS
0
ENDTAB
0
TABLE
2
STYLE
5
3
100
AcDbSymbolTable
70
1
0
STYLE
5
11
100
AcDbSymbolTableRecord
100
AcDbTextStyleTableRecord
2
STANDARD
70
0
0
ENDTAB
0
TABLE
2
VIEW
5
6
100
AcDbSymbolTable
70
0
0
ENDTAB
0
TABLE
2
UCS
5
7
100
AcDbSymbolTable
70
0
0
ENDTAB
0
TABLE
2
APPID
5
9
100
AcDbSymbolTable
70
2
0
APPID
5
12
100
AcDbSymbolTableRecord
100
AcDbRegAppTableRecord
2
ACAD
70
0
0
ENDTAB
0
TABLE
2
DIMSTYLE
5
A
100
AcDbSymbolTable
70
1
0
ENDTAB
0
TABLE
2
BLOCK_RECORD
5
1
100
AcDbSymbolTable
70
1
0
BLOCK_RECORD
5
1F
100
AcDbSymbolTableRecord
100
AcDbBlockTableRecord
2
*MODEL_SPACE
0
BLOCK_RECORD
5
1B
100
AcDbSymbolTableRecord
100
AcDbBlockTableRecord
2
*PAPER_SPACE
0
ENDTAB
0
ENDSEC
0
SECTION
2
BLOCKS
0
BLOCK
5
20
100
AcDbEntity
100
AcDbBlockBegin
2
*MODEL_SPACE
0
ENDBLK
5
21
100
AcDbEntity
100
AcDbBlockEnd
0
BLOCK
5
1C
100
AcDbEntity
100
AcDbBlockBegin
2
*PAPER_SPACE
0
ENDBLK
5
1D
100
AcDbEntity
100
AcDbBlockEnd
0
ENDSEC
0
SECTION
2
ENTITIES
0
LWPOLYLINE
5
100
100
AcDbEntity
8
0
100
AcDbPolyline
90
8
70
1
43
0.0
10
36.104999999999862
20
60.996700000000118
10
36.104999999999862
20
52.599300000000113
42
0.41421356237309503
10
36.604999999999862
20
52.099300000000106
10
52.9271999999999
20
52.099300000000113
42
0.41421356237309503
10
53.4271999999999
20
52.599300000000113
10
53.427199999999893
20
60.996700000000111
42
0.41421356237309503
10
52.927199999999893
20
61.496700000000111
10
36.604999999999862
20
61.496700000000118
42
0.41421356237309503
0
LWPOLYLINE
5
101
100
AcDbEntity
8
0
100
AcDbPolyline
90
8
70
1
43
0.0
10
53.4271999999999
20
33.599300000000113
10
53.427199999999893
20
41.996700000000111
42
0.41421356237309503
10
52.927199999999893
20
42.496700000000104
10
36.604999999999862
20
42.496700000000118
42
0.41421356237309503
10
36.104999999999862
20
41.996700000000118
10
36.104999999999862
20
33.599300000000113
42
0.41421356237309503
10
36.604999999999862
20
33.099300000000113
10
52.9271999999999
20
33.099300000000113
42
0.41421356237309503
0
LWPOLYLINE
5
102
100
AcDbEntity
8
0
100
AcDbPolyline
90
8
70
1
43
0.0
10
8.9999999999998987
20
93.629999999999924
10
8.9999999999998952
20
69.499999999999929
42
0.41421356237309243
10
9.4999999999998863
20
68.999999999999929
10
80.499999999999901
20
68.999999999999929
42
0.41421356237309503
10
80.999999999999915
20
69.499999999999915
10
80.999999999999915
20
93.629999999999924
42
0.41421356237309503
10
80.499999999999901
20
94.129999999999939
10
9.4999999999998952
20
94.129999999999939
42
0.41421356237309503
0
LWPOLYLINE
5
103
100
AcDbEntity
8
0
100
AcDbPolyline
90
8
70
1
43
0.0
10
87.613313920764995
20
31.752356596155398
10
87.613313920764995
20
34.252177003846896
42
0.41421356237309503
10
86.613313920764995
20
35.252177003846896
10
68.563313920712972
20
35.252177003846889
42
0.41421356237309503
10
67.563313920712972
20
34.252177003846889
10
67.563313920712972
20
31.752356596155394
42
0.41421356237309503
10
68.563313920712972
20
30.752356596155398
10
86.613313920764995
20
30.752356596155398
42
0.41421356237309503
0
LWPOLYLINE
5
104
100
AcDbEntity
8
0
100
AcDbPolyline
90
8
70
1
43
0.0
10
86.613313920764995
20
16.252177003846889
10
68.563313920712972
20
16.252177003846889
42
0.41421356237309503
10
67.563313920712972
20
15.252177003846889
10
67.563313920712972
20
12.752356596155387
42
0.41421356237309503
10
68.563313920712972
20
11.752356596155389
10
86.613313920764995
20
11.752356596155387
42
0.41421356237309437
10
87.613313920764995
20
12.752356596155385
10
87.613313920764995
20
15.252177003846889
42
0.41421356237309503
0
LWPOLYLINE
5
105
100
AcDbEntity
8
0
100
AcDbPolyline
90
8
70
1
43
0.0
10
68.563313920712972
20
49.752356596155387
10
86.613313920764995
20
49.752356596155387
42
0.41421356237309503
10
87.613313920764995
20
50.75235659615538
10
87.613313920764995
20
53.252177003846903
42
0.41421356237309503
10
86.613313920764995
20
54.252177003846889
10
68.563313920712972
20
54.25217700384691
42
0.41421356237309503
10
67.563313920712972
20
53.25217700384691
10
67.563313920712972
20
50.752356596155394
42
0.41421356237309503
0
CIRCLE
5
106
100
AcDbEntity
8
0
100
AcDbCircle
10
13.649999999999846
20
36.749999999999879
30
0
40
2.25
210
-0
220
0
230
1
0
CIRCLE
5
107
100
AcDbEntity
8
0
100
AcDbCircle
10
22.149999999999821
20
44.749999999999865
30
0
40
2.25
210
-0
220
0
230
1
0
CIRCLE
5
108
100
AcDbEntity
8
0
100
AcDbCircle
10
13.649999999999851
20
52.749999999999886
30
0
40
2.25
210
-0
220
0
230
1
0
CIRCLE
5
109
100
AcDbEntity
8
0
100
AcDbCircle
10
5.1499999999998423
20
44.749999999999879
30
0
40
2.25
210
-0
220
0
230
1
0
CIRCLE
5
110
100
AcDbEntity
8
0
100
AcDbCircle
10
13.649999999999821
20
18.749999999999886
30
0
40
2.25
210
-0
220
0
230
1
0
CIRCLE
5
111
100
AcDbEntity
8
0
100
AcDbCircle
10
82.499999999999872
20
65.999999999999744
30
0
40
1.5000000000000002
210
-0
220
0
230
1
0
CIRCLE
5
112
100
AcDbEntity
8
0
100
AcDbCircle
10
7.4999999999998836
20
97
30
0
40
1.5000000000000002
210
-0
220
0
230
1
0
CIRCLE
5
113
100
AcDbEntity
8
0
100
AcDbCircle
10
82.499999999999943
20
96.999999999999872
30
0
40
1.5000000000000002
210
-0
220
0
230
1
0
CIRCLE
5
114
100
AcDbEntity
8
0
100
AcDbCircle
10
7.4999999999997975
20
65.999999999999901
30
0
40
1.5000000000000002
210
-0
220
0
230
1
0
CIRCLE
5
115
100
AcDbEntity
8
0
100
AcDbCircle
10
54.499999999999886
20
16.999999999999876
30
0
40
5.75
210
-0
220
0
230
1
0
CIRCLE
5
116
100
AcDbEntity
8
0
100
AcDbCircle
10
35.450010617966321
20
16.979886710630126
30
0
40
5.75
210
-0
220
0
230
1
0
LWPOLYLINE
5
117
100
AcDbEntity
8
0
100
AcDbPolyline
90
8
70
1
43
0.0
10
91
20
0.49999999999999833
42
-0.41421356237307377
10
90.499999999999986
20
0
10
-0.49999999999999989
20
1.7347234759768071e-15
42
-0.41421356237310014
10
-0.99999999999999645
20
0.50000000000000711
10
-1.0000000000000051
20
100.49999999999997
42
-0.41421356237310014
10
-0.50000000000000711
20
101
10
90.499999999999972
20
101.00000000000001
42
-0.41421356237306384
10
91
20
100.5
0
ENDSEC
0
SECTION
2
OBJECTS
0
DICTIONARY
5
C
100
AcDbDictionary
3
ACAD_GROUP
350
D
3
ACAD_MLINESTYLE
350
17
0
DICTIONARY
5
D
100
AcDbDictionary
0
DICTIONARY
5
1A
330
C
100
AcDbDictionary
0
DICTIONARY
5
17
100
AcDbDictionary
0
ENDSEC
0
EOF
